<svg
  xmlns="http://www.w3.org/2000/svg"
  width="128"
  height="96"
  viewBox="0 0 128 96"
  role="img"
  aria-labelledby="title desc"
>
  <title id="title">천원마켓 마크</title>
  <desc id="desc">민트색 가격표 태그 안에 흰색 원화 기호가 있는 브랜드 마크</desc>
  <defs>
    <filter id="soft-shadow" x="-20%" y="-20%" width="140%" height="140%">
      <feDropShadow dx="0" dy="7" stdDeviation="7" flood-color="#1f2933" flood-opacity="0.12" />
    </filter>
  </defs>

  <g filter="url(#soft-shadow)" transform="translate(7 2) rotate(-6 57 46)">
    <path
      fill="#65c6a4"
      d="M26 14h70c10 0 18 8 18 18v40c0 10-8 18-18 18H34c-8 0-15-4-20-10L2 64c-3-4-3-10 0-14l12-16c5-6 12-20 12-20Z"
    />
    <path
      fill="#4aad8f"
      opacity="0.45"
      d="M16 78c5 6 12 10 20 10h60c10 0 18-8 18-18v8c0 10-8 18-18 18H34c-8 0-15-4-20-10L2 70c-2-3-3-6-2-10l14 18Z"
    />
    <circle cx="28" cy="52" r="6" fill="#fffdf8" />
    <g
      fill="none"
      stroke="#fffdf8"
      stroke-linecap="round"
      stroke-linejoin="round"
      stroke-width="6"
    >
      <path d="M49 37 56 68 65 45 74 68 82 37" />
      <path d="M46 49h39" />
      <path d="M48 58h35" />
    </g>
  </g>
</svg>
