<svg
  xmlns="http://www.w3.org/2000/svg"
  width="520"
  height="112"
  viewBox="0 0 520 112"
  role="img"
  aria-labelledby="title desc"
>
  <title id="title">천원마켓 로고</title>
  <desc id="desc">민트색 가격표 태그와 천원마켓 워드마크, 공짜부터 천원까지 가볍게 예약 문구</desc>
  <defs>
    <filter id="soft-shadow" x="-20%" y="-20%" width="140%" height="140%">
      <feDropShadow dx="0" dy="8" stdDeviation="8" flood-color="#1f2933" flood-opacity="0.12" />
    </filter>
  </defs>

  <g filter="url(#soft-shadow)" transform="translate(18 14) rotate(-6 50 42)">
    <path
      fill="#65c6a4"
      d="M26 14h70c10 0 18 8 18 18v40c0 10-8 18-18 18H34c-8 0-15-4-20-10L2 64c-3-4-3-10 0-14l12-16c5-6 12-20 12-20Z"
    />
    <path
      fill="#4aad8f"
      opacity="0.45"
      d="M16 78c5 6 12 10 20 10h60c10 0 18-8 18-18v8c0 10-8 18-18 18H34c-8 0-15-4-20-10L2 70c-2-3-3-6-2-10l14 18Z"
    />
    <circle cx="28" cy="52" r="6" fill="#fffdf8" />
    <g
      fill="none"
      stroke="#fffdf8"
      stroke-linecap="round"
      stroke-linejoin="round"
      stroke-width="6"
    >
      <path d="M49 37 56 68 65 45 74 68 82 37" />
      <path d="M46 49h39" />
      <path d="M48 58h35" />
    </g>
  </g>

  <g fill="#1f2933">
    <text
      x="154"
      y="52"
      font-family="Pretendard, Inter, ui-sans-serif, system-ui, -apple-system, BlinkMacSystemFont, 'Segoe UI', sans-serif"
      font-size="34"
      font-weight="900"
      letter-spacing="0"
    >
      천원마켓
    </text>
    <text
      x="156"
      y="79"
      fill="#687482"
      font-family="Pretendard, Inter, ui-sans-serif, system-ui, -apple-system, BlinkMacSystemFont, 'Segoe UI', sans-serif"
      font-size="15"
      font-weight="700"
      letter-spacing="0"
    >
      공짜부터 천원까지, 가볍게 예약
    </text>
  </g>
</svg>
